<svg width="78" height="95" viewBox="0 0 78 95" fill="none" xmlns="http://www.w3.org/2000/svg">
<path d="M6.45973 29.5382L7.918 29.8896L8.11154 29.0863L7.53601 28.4934L6.45973 29.5382ZM12.7359 53.2645L11.6708 54.3207L13.9858 52.4353L12.7359 53.2645ZM64.5316 53.2645L63.3309 52.3654L65.5965 54.3209L64.5316 53.2645ZM68.8289 27.0178L67.8036 25.923L66.8599 26.8068L67.5949 27.8705L68.8289 27.0178ZM54.0218 9.78875L53.2615 11.0818L53.8715 11.4404L54.5362 11.1978L54.0218 9.78875ZM17.6686 9.78861L18.3583 8.45657L18.2853 8.41874L18.2085 8.38913L17.6686 9.78861ZM15.7092 28.0683L16.9308 27.1978L14.6865 24.0482L14.2201 27.8874L15.7092 28.0683ZM63.0469 34.4654L64.5408 34.3299L64.5339 34.2542L64.5194 34.1795L63.0469 34.4654ZM65.3036 59.3575L66.8036 59.3575L66.8036 59.2896L66.7975 59.222L65.3036 59.3575ZM11.9084 59.3575L10.4193 59.1766L10.4084 59.2667V59.3575L11.9084 59.3575ZM29.3434 28.0683L29.8296 29.4873L29.8919 29.466L29.9521 29.4392L29.3434 28.0683ZM27.8002 4.11165L26.8002 2.99366L26.8002 2.99366L27.8002 4.11165ZM5.22778 59.2656C4.39936 59.2656 3.72778 59.9372 3.72778 60.7656C3.72778 61.5941 4.39936 62.2656 5.22778 62.2656V59.2656ZM6.49308 61.0264L7.11696 59.6623L7.11696 59.6623L6.49308 61.0264ZM8.60073 62.7625L9.9011 62.0148L9.9011 62.0148L8.60073 62.7625ZM8.50906 66.732C8.65421 67.5476 9.43307 68.0911 10.2487 67.9459C11.0643 67.8008 11.6078 67.0219 11.4626 66.2063L8.50906 66.732ZM71.7909 62.3436C72.6194 62.3436 73.2909 61.672 73.2909 60.8436C73.2909 60.0152 72.6194 59.3436 71.7909 59.3436V62.3436ZM70.5261 61.1043L71.1501 62.4684L71.1501 62.4684L70.5261 61.1043ZM68.4193 62.84L69.7197 63.5876L69.7197 63.5876L68.4193 62.84ZM65.5579 66.2829C65.4128 67.0986 65.9563 67.8774 66.7719 68.0225C67.5875 68.1677 68.3664 67.6241 68.5115 66.8085L65.5579 66.2829ZM51.3173 54.326V52.826H48.1943L50.1465 55.2637L51.3173 54.326ZM53.3365 54.326V55.826H54.8365V54.326H53.3365ZM53.3365 56.8472H54.8365V56.3206L54.5073 55.9096L53.3365 56.8472ZM26.7414 54.326V52.826H23.6184L25.5706 55.2637L26.7414 54.326ZM28.7606 54.326V55.826H30.2606V54.326H28.7606ZM28.7606 56.8472H30.2606V56.3206L29.9314 55.9096L28.7606 56.8472ZM26.8262 42.6109L27.3178 44.0281L27.3178 44.0281L26.8262 42.6109ZM20.626 44.9261L21.6293 46.0412L21.6293 46.0412L20.626 44.9261ZM21.3027 44.5267L20.8111 43.1095L20.8111 43.1095L21.3027 44.5267ZM36.3938 39.4837L37.3651 38.3407L36.3938 39.4837ZM36.4062 39.5942L35.2148 38.6829L35.2148 38.6829L36.4062 39.5942ZM22.7643 38.2221L22.195 36.8343L22.195 36.8343L22.7643 38.2221ZM25.1962 37.5591L25.41 39.0437L25.41 39.0437L25.1962 37.5591ZM18.5855 41.2018L17.2927 40.4411L18.5855 41.2018ZM21.3578 38.799L21.9271 40.1868L21.9271 40.1868L21.3578 38.799ZM17.8791 43.1174L16.402 42.8566L16.402 42.8566L17.8791 43.1174ZM17.7128 44.9812L16.2871 45.4473L17.7128 44.9812ZM19.9118 45.5687L18.9085 44.4536L18.9085 44.4536L19.9118 45.5687ZM28.2561 37.1184L28.0422 35.6337L28.0422 35.6337L28.2561 37.1184ZM17.6663 44.3232L19.1434 44.584L19.1434 44.584L17.6663 44.3232ZM46.1967 36.91L46.1007 38.407L46.1007 38.407L46.1967 36.91ZM49.1636 37.5697L49.7114 36.1733L49.7114 36.1733L49.1636 37.5697ZM55.2183 40.1049L54.1856 41.1927L54.1856 41.1927L55.2183 40.1049ZM54.5633 39.6883L54.0155 41.0847L54.0155 41.0847L54.5633 39.6883ZM39.8519 34.0895L39.0095 32.8484L39.0094 32.8485L39.8519 34.0895ZM39.8314 34.2028L41.0487 33.3264L39.8314 34.2028ZM53.4801 33.7863L52.86 35.1521L52.86 35.1521L53.4801 33.7863ZM51.209 33.0563L50.9169 34.5276L50.9169 34.5276L51.209 33.0563ZM57.4734 36.7674L58.791 36.0505L58.791 36.0504L57.4734 36.7674ZM55.0196 34.4853L55.6397 33.1195L55.6397 33.1195L55.0196 34.4853ZM58.0771 38.6499L59.5669 38.4751L59.5669 38.4751L58.0771 38.6499ZM57.4884 36.7949L56.1708 37.5118L56.1708 37.5119L57.4884 36.7949ZM58.0961 40.3752L59.4698 40.9775L59.4698 40.9775L58.0961 40.3752ZM55.9676 40.8161L57.0003 39.7283L57.0003 39.7283L55.9676 40.8161ZM44.5439 36.8041L44.6399 35.3071L44.6399 35.3071L44.5439 36.8041ZM47.964 32.412L48.2561 30.9407L48.2561 30.9407L47.964 32.412ZM39.8977 34.0585L40.7401 35.2995L40.7402 35.2995L39.8977 34.0585ZM58.199 39.6885L56.7092 39.8633L56.7092 39.8633L58.199 39.6885ZM38.7819 56.6484V55.1484H38.0071L37.5587 55.7803L38.7819 56.6484ZM40.4272 56.6484L41.7218 57.406L43.0429 55.1484H40.4272V56.6484ZM35.4915 62.683L34.0014 62.5107L33.9027 63.3641L34.5889 63.8811L35.4915 62.683ZM40.4272 65.3793L40.069 66.8359L44.9638 68.0396L41.5235 64.3555L40.4272 65.3793ZM37.2863 62.0159L35.9916 61.2583L35.4272 62.2228L36.1899 63.0396L37.2863 62.0159ZM34.8836 72.8189L35.7623 71.6032L35.7623 71.6032L34.8836 72.8189ZM34.734 85.1232L35.9681 85.9758L35.9681 85.9758L34.734 85.1232ZM5.00146 29.1868C3.61455 34.9431 3.80574 39.1302 5.14417 42.9819C6.44667 46.7302 8.82527 50.0831 11.4859 54.0938L13.9858 52.4353C11.2189 48.2645 9.12423 45.2959 7.97796 41.9972C6.86761 38.8019 6.63452 35.2166 7.918 29.8896L5.00146 29.1868ZM65.7322 54.1637C68.651 50.2664 71.0608 45.2917 72.1012 40.3208C73.1376 35.3693 72.8535 30.2038 70.063 26.1652L67.5949 27.8705C69.7401 30.9753 70.1099 35.1911 69.1648 39.7062C68.2239 44.2017 66.0172 48.7786 63.3309 52.3654L65.7322 54.1637ZM69.8543 28.1127C74.7912 23.4894 74.2656 17.0707 70.76 12.6638C67.2517 8.25342 60.7418 5.73911 53.5075 8.37968L54.5362 11.1978C60.5385 9.00693 65.6948 11.1153 68.4122 14.5314C71.1324 17.9509 71.392 22.5625 67.8036 25.923L69.8543 28.1127ZM18.2085 8.38913C13.1104 6.42246 9.12019 6.17057 6.15115 7.36767C3.10505 8.59584 1.48945 11.1979 0.858803 14.0798C0.235155 16.9297 0.532773 20.1716 1.36375 23.085C2.19271 25.9913 3.60384 28.7498 5.38345 30.583L7.53601 28.4934C6.20028 27.1174 4.98701 24.8506 4.24869 22.2621C3.5124 19.6807 3.29989 16.9583 3.78945 14.7211C4.27202 12.5159 5.39297 10.908 7.27297 10.15C9.23002 9.36096 12.3554 9.3467 17.1287 11.1881L18.2085 8.38913ZM63.8036 59.3575C63.8036 81.0146 50.9713 91.4512 38.6001 91.4998C32.354 91.5244 26.0891 88.9287 21.3697 83.6487C16.6524 78.3709 13.4084 70.3248 13.4084 59.3575L10.4084 59.3575C10.4084 70.9234 13.8388 79.7247 19.133 85.6479C24.4253 91.5689 31.5092 94.5278 38.6119 94.4998C52.9382 94.4434 66.8036 82.3467 66.8036 59.3575L63.8036 59.3575ZM61.5531 34.6008L63.8097 59.4929L66.7975 59.222L64.5408 34.3299L61.5531 34.6008ZM14.4876 28.9387C15.2214 29.9685 15.985 30.8467 16.9282 31.4335C17.9228 32.0524 18.9928 32.273 20.1951 32.2136C21.3436 32.1568 22.6458 31.8423 24.1599 31.3826C25.6846 30.9196 27.5486 30.2688 29.8296 29.4873L28.8572 26.6493C26.539 27.4435 24.7472 28.069 23.2882 28.512C21.8185 28.9583 20.8092 29.1795 20.0469 29.2172C19.3385 29.2523 18.8986 29.1262 18.513 28.8863C18.0761 28.6144 17.5891 28.1218 16.9308 27.1978L14.4876 28.9387ZM29.9521 29.4392C34.9327 27.228 39.2712 25.5381 43.0233 24.4855C46.7874 23.4295 49.8602 23.0448 52.3433 23.354C54.7731 23.6566 56.6537 24.6228 58.1288 26.361C59.6407 28.1425 60.8153 30.8412 61.5744 34.7512L64.5194 34.1795C63.7081 30.0008 62.3884 26.7439 60.4161 24.4199C58.4071 22.0525 55.8137 20.7631 52.7141 20.377C49.6676 19.9976 46.1553 20.491 42.213 21.597C38.2585 22.7064 33.7692 24.4622 28.7347 26.6973L29.9521 29.4392ZM13.801 52.2083C12.2095 50.6035 10.5793 49.6264 8.93753 49.3437C7.24851 49.053 5.72985 49.5297 4.49845 50.4775C2.1477 52.2868 0.851615 55.7666 0.563439 59.1787C0.271496 62.6354 0.966389 66.5117 3.1627 69.2915C5.45721 72.1956 9.18173 73.6396 14.2616 72.4792L13.5935 69.5546C9.47496 70.4954 6.99309 69.3004 5.51664 67.4317C3.94198 65.4387 3.30134 62.4084 3.5528 59.4312C3.80802 56.4093 4.93426 53.9278 6.32826 52.8548C6.96923 52.3615 7.65355 52.1668 8.42855 52.3002C9.25077 52.4418 10.3457 52.9845 11.6708 54.3207L13.801 52.2083ZM65.5965 54.3209C66.9182 52.9884 68.0211 52.4438 68.8609 52.3011C69.6583 52.1656 70.3734 52.3642 71.0464 52.8677C72.4982 53.9536 73.6845 56.4468 74.0069 59.4645C74.3252 62.4441 73.7456 65.4667 72.2246 67.4482C70.8051 69.2974 68.3716 70.496 64.2493 69.5546L63.5814 72.4793C68.6585 73.6388 72.3602 72.1984 74.6043 69.2749C76.7468 66.4838 77.359 62.6001 76.9899 59.1458C76.625 55.7297 75.2448 52.2617 72.8434 50.4654C71.5899 49.5277 70.0567 49.0549 68.3583 49.3435C66.7023 49.6249 65.0618 50.5998 63.4666 52.2082L65.5965 54.3209ZM13.3974 59.5383L17.1982 28.2492L14.2201 27.8874L10.4193 59.1766L13.3974 59.5383ZM54.7821 8.49571C46.4449 3.59348 40.5344 1.30257 36.1829 0.680894C31.7286 0.0445306 28.8549 1.15569 26.8002 2.99366L28.8003 5.22964C30.1264 4.04343 32.086 3.12605 35.7586 3.65074C39.534 4.19011 45.0439 6.24984 53.2615 11.0818L54.7821 8.49571ZM26.8002 2.99366C25.7397 3.94223 24.9522 5.03663 24.3041 5.99188C23.6166 7.00505 23.138 7.77155 22.5868 8.37104C22.0801 8.92228 21.6506 9.16912 21.1635 9.23301C20.6331 9.30259 19.773 9.18907 18.3583 8.45657L16.9789 11.1206C18.6721 11.9973 20.1743 12.3885 21.5537 12.2075C22.9765 12.0209 24.0043 11.2619 24.7954 10.4014C25.5421 9.5891 26.202 8.53779 26.7865 7.67636C27.4103 6.75701 28.0285 5.92002 28.8003 5.22964L26.8002 2.99366ZM5.22778 62.2656C5.47304 62.2656 5.71013 62.3177 5.8692 62.3905L7.11696 59.6623C6.50914 59.3843 5.83604 59.2656 5.22778 59.2656V62.2656ZM5.8692 62.3905C6.12751 62.5086 6.45113 62.7031 6.7446 62.9359C7.05208 63.1798 7.23143 63.3903 7.30036 63.5102L9.9011 62.0148C9.56818 61.4358 9.06772 60.9494 8.60883 60.5854C8.13594 60.2104 7.60665 59.8862 7.11696 59.6623L5.8692 62.3905ZM7.30036 63.5102C7.86675 64.4953 8.32077 65.674 8.50906 66.732L11.4626 66.2063C11.2052 64.7597 10.6144 63.2555 9.9011 62.0148L7.30036 63.5102ZM71.7909 59.3436C71.1828 59.3436 70.5098 59.4623 69.9022 59.7402L71.1501 62.4684C71.309 62.3957 71.5459 62.3436 71.7909 62.3436V59.3436ZM69.9022 59.7402C69.4126 59.9642 68.8835 60.2882 68.4108 60.6632C67.952 61.0271 67.4517 61.5135 67.1189 62.0924L69.7197 63.5876C69.7886 63.4678 69.9678 63.2573 70.2751 63.0136C70.5685 62.7809 70.8919 62.5864 71.1501 62.4684L69.9022 59.7402ZM67.1189 62.0924C66.4058 63.3328 65.8153 64.8366 65.5579 66.2829L68.5115 66.8085C68.6997 65.7508 69.1536 64.5724 69.7197 63.5876L67.1189 62.0924ZM49.4521 57.2674V49.2836H46.4521V57.2674H49.4521ZM51.8365 49.2836V54.326H54.8365V49.2836H51.8365ZM53.3365 52.826H51.3173V55.826H53.3365V52.826ZM50.1465 55.2637L52.1657 57.7849L54.5073 55.9096L52.4881 53.3884L50.1465 55.2637ZM51.8365 56.8472V57.2674H54.8365V56.8472H51.8365ZM50.6443 58.2887C49.8916 58.2887 49.4521 57.7402 49.4521 57.2674H46.4521C46.4521 59.5795 48.4232 61.2887 50.6443 61.2887V58.2887ZM50.6443 61.2887C52.8653 61.2887 54.8365 59.5795 54.8365 57.2674H51.8365C51.8365 57.7402 51.3969 58.2887 50.6443 58.2887V61.2887ZM50.6443 49.5231C51.0671 49.5231 51.3538 49.515 51.6485 49.5236C51.935 49.5319 52.0727 49.5552 52.1307 49.572C52.168 49.5828 52.0381 49.5517 51.9206 49.3935C51.8073 49.2409 51.8365 49.1455 51.8365 49.2836H54.8365C54.8365 48.7255 54.715 48.1244 54.3291 47.6049C53.9392 47.0799 53.4151 46.8207 52.9652 46.6904C52.536 46.5661 52.0936 46.5353 51.7359 46.5249C51.3864 46.5147 50.9648 46.5231 50.6443 46.5231V49.5231ZM50.6443 46.5231C50.3237 46.5231 49.9021 46.5147 49.5526 46.5249C49.1949 46.5353 48.7525 46.5661 48.3233 46.6904C47.8734 46.8207 47.3493 47.0799 46.9594 47.6049C46.5736 48.1244 46.4521 48.7255 46.4521 49.2836H49.4521C49.4521 49.1455 49.4812 49.2409 49.3679 49.3935C49.2504 49.5517 49.1206 49.5828 49.1578 49.572C49.2158 49.5552 49.3536 49.5319 49.6401 49.5236C49.9348 49.515 50.2214 49.5231 50.6443 49.5231V46.5231ZM24.8762 57.2674V49.2836H21.8762V57.2674H24.8762ZM27.2606 49.2836V54.326H30.2606V49.2836H27.2606ZM28.7606 52.826H26.7414V55.826H28.7606V52.826ZM25.5706 55.2637L27.5898 57.7849L29.9314 55.9096L27.9122 53.3884L25.5706 55.2637ZM27.2606 56.8472V57.2674H30.2606V56.8472H27.2606ZM26.0684 58.2887C25.3157 58.2887 24.8762 57.7402 24.8762 57.2674H21.8762C21.8762 59.5795 23.8473 61.2887 26.0684 61.2887V58.2887ZM26.0684 61.2887C28.2894 61.2887 30.2606 59.5795 30.2606 57.2674H27.2606C27.2606 57.7402 26.821 58.2887 26.0684 58.2887V61.2887ZM26.0684 49.523C26.4912 49.523 26.7779 49.5149 27.0726 49.5235C27.3591 49.5319 27.4968 49.5552 27.5548 49.572C27.592 49.5827 27.4622 49.5517 27.3447 49.3935C27.2314 49.2409 27.2606 49.1455 27.2606 49.2836H30.2606C30.2606 48.7255 30.1391 48.1244 29.7533 47.6049C29.3633 47.0799 28.8392 46.8207 28.3893 46.6904C27.9601 46.5661 27.5177 46.5353 27.1601 46.5248C26.8106 46.5146 26.389 46.523 26.0684 46.523V49.523ZM26.0684 46.523C25.7478 46.523 25.3262 46.5146 24.9767 46.5248C24.619 46.5353 24.1766 46.5661 23.7474 46.6904C23.2975 46.8207 22.7734 47.0799 22.3835 47.6049C21.9977 48.1244 21.8762 48.7255 21.8762 49.2836H24.8762C24.8762 49.1455 24.9053 49.2409 24.792 49.3935C24.6746 49.5517 24.5447 49.5827 24.582 49.572C24.64 49.5552 24.7777 49.5319 25.0642 49.5235C25.3589 49.5149 25.6455 49.523 26.0684 49.523V46.523ZM19.1434 44.584L19.3563 43.3781L16.402 42.8566L16.1891 44.0625L19.1434 44.584ZM21.9271 40.1868L23.3336 39.6098L22.195 36.8343L20.7885 37.4113L21.9271 40.1868ZM25.41 39.0437L28.4699 38.603L28.0422 35.6337L24.9823 36.0744L25.41 39.0437ZM19.6227 43.811L18.9085 44.4536L20.915 46.6838L21.6293 46.0412L19.6227 43.811ZM31.3431 40.5958H29.8833V43.5958H31.3431V40.5958ZM26.3347 41.1937L20.8111 43.1095L21.7942 45.9439L27.3178 44.0281L26.3347 41.1937ZM29.8833 40.5958C28.6753 40.5958 27.4759 40.7979 26.3347 41.1937L27.3178 44.0281C28.1428 43.7419 29.01 43.5958 29.8833 43.5958V40.5958ZM21.6293 46.0412C21.6772 45.9981 21.7333 45.965 21.7942 45.9439L20.8111 43.1095C20.3722 43.2618 19.9681 43.5003 19.6227 43.811L21.6293 46.0412ZM35.4225 40.6268C34.8602 40.149 34.7448 39.2972 35.2148 38.6829L37.5976 40.5056C38.1195 39.8233 37.9926 38.8738 37.3651 38.3407L35.4225 40.6268ZM23.3336 39.6098C23.9999 39.3365 24.6972 39.1464 25.41 39.0437L24.9823 36.0744C24.0255 36.2122 23.0894 36.4674 22.195 36.8343L23.3336 39.6098ZM19.8783 41.9625C20.349 41.1627 21.0685 40.539 21.9271 40.1868L20.7885 37.4113C19.3236 38.0122 18.0957 39.0764 17.2927 40.4411L19.8783 41.9625ZM19.3563 43.3781C19.4444 42.8789 19.6212 42.3994 19.8783 41.9625L17.2927 40.4411C16.854 41.1866 16.5524 42.0047 16.402 42.8566L19.3563 43.3781ZM16.2871 45.4473C16.9291 47.4113 19.379 48.0659 20.915 46.6838L18.9085 44.4536C18.9209 44.4425 18.9448 44.4283 18.9746 44.4216C19.001 44.4157 19.0231 44.4174 19.0402 44.422C19.0573 44.4266 19.0773 44.4361 19.0972 44.4544C19.1197 44.475 19.1334 44.4992 19.1386 44.5151L16.2871 45.4473ZM35.2148 38.6829C34.2925 39.8886 32.8611 40.5958 31.3431 40.5958V43.5958C33.7954 43.5958 36.1077 42.4534 37.5976 40.5056L35.2148 38.6829ZM28.4699 38.603C30.9481 38.2461 33.5037 38.9963 35.4225 40.6268L37.3651 38.3407C34.8017 36.1624 31.386 35.1521 28.0422 35.6337L28.4699 38.603ZM19.1386 44.5151C19.1458 44.5373 19.1475 44.561 19.1434 44.584L16.1891 44.0625C16.1075 44.5251 16.1411 45.0007 16.2871 45.4473L19.1386 44.5151ZM59.6888 39.5138L59.5669 38.4751L56.5874 38.8246L56.7092 39.8633L59.6888 39.5138ZM58.806 36.0781L58.791 36.0505L56.1558 37.4843L56.1708 37.5118L58.806 36.0781ZM55.6397 33.1195L54.1003 32.4205L52.86 35.1521L54.3995 35.8511L55.6397 33.1195ZM51.5011 31.585L48.2561 30.9407L47.6719 33.8833L50.9169 34.5276L51.5011 31.585ZM39.0553 32.8174L39.0095 32.8484L40.6944 35.3306L40.7401 35.2995L39.0553 32.8174ZM54.1856 41.1927L54.9348 41.904L57.0003 39.7283L56.2511 39.017L54.1856 41.1927ZM44.4479 38.301L46.1007 38.407L46.2926 35.4131L44.6399 35.3071L44.4479 38.301ZM48.6157 38.966L54.0155 41.0847L55.1112 38.2919L49.7114 36.1733L48.6157 38.966ZM46.1007 38.407C46.9646 38.4624 47.813 38.6511 48.6157 38.966L49.7114 36.1733C48.6189 35.7446 47.4656 35.4883 46.2926 35.4131L46.1007 38.407ZM56.2511 39.017C55.9213 38.704 55.5342 38.4579 55.1112 38.2919L54.0155 41.0847C54.0792 41.1097 54.1368 41.1464 54.1856 41.1927L56.2511 39.017ZM39.0094 32.8485C38.2837 33.3411 38.0867 34.3468 38.614 35.0792L41.0487 33.3264C41.5234 33.9857 41.345 34.8889 40.6944 35.3306L39.0094 32.8485ZM54.1003 32.4205C53.2693 32.0432 52.3972 31.7629 51.5011 31.585L50.9169 34.5276C51.5873 34.6607 52.2393 34.8703 52.86 35.1521L54.1003 32.4205ZM58.791 36.0504C58.087 34.7567 56.9813 33.7286 55.6397 33.1195L54.3995 35.8511C55.1481 36.1911 55.7638 36.7639 56.1559 37.4844L58.791 36.0504ZM59.5669 38.4751C59.4683 37.6345 59.2102 36.8209 58.806 36.078L56.1708 37.5119C56.3917 37.9178 56.5332 38.3632 56.5874 38.8246L59.5669 38.4751ZM56.7223 39.773C56.7442 39.723 56.7944 39.6887 56.8376 39.6797C56.8587 39.6753 56.8857 39.6747 56.9169 39.683C56.9512 39.6922 56.981 39.71 57.0003 39.7283L54.9348 41.904C56.3652 43.2619 58.6896 42.7572 59.4698 40.9775L56.7223 39.773ZM38.614 35.0792C39.977 36.9723 42.1164 38.1515 44.4479 38.301L44.6399 35.3071C43.1993 35.2148 41.8846 34.4874 41.0487 33.3264L38.614 35.0792ZM48.2561 30.9407C45.0685 30.3079 41.7529 30.9861 39.0552 32.8174L40.7402 35.2995C42.7777 33.9163 45.2767 33.4077 47.6719 33.8833L48.2561 30.9407ZM59.4698 40.9775C59.6711 40.5184 59.7474 40.0132 59.6888 39.5138L56.7092 39.8633C56.7054 39.8308 56.7106 39.7997 56.7223 39.773L59.4698 40.9775ZM38.7819 58.1484H40.4272V55.1484H38.7819V58.1484ZM35.4915 62.683C36.9815 62.8553 36.9814 62.8564 36.9813 62.8575C36.9812 62.8579 36.9811 62.8589 36.981 62.8597C36.9808 62.8611 36.9807 62.8625 36.9805 62.8639C36.9802 62.8666 36.9798 62.8692 36.9795 62.8718C36.9789 62.8768 36.9783 62.8814 36.9777 62.8855C36.9765 62.8938 36.9755 62.9002 36.9748 62.9048C36.9733 62.914 36.9728 62.9157 36.9741 62.9097C36.9766 62.8976 36.9861 62.8549 37.0084 62.7793C37.0532 62.6279 37.149 62.3471 37.342 61.9203C37.7289 61.0645 38.4983 59.6397 40.0052 57.5166L37.5587 55.7803C35.9682 58.0213 35.0924 59.6139 34.6084 60.6843C34.3659 61.2206 34.2199 61.6301 34.1317 61.9283C34.0875 62.0775 34.0577 62.1994 34.0375 62.2957C34.0275 62.3439 34.0198 62.3858 34.014 62.4215C34.0111 62.4394 34.0086 62.4558 34.0065 62.4706C34.0055 62.478 34.0045 62.4851 34.0037 62.4918C34.0033 62.4951 34.0029 62.4984 34.0025 62.5015C34.0023 62.5031 34.0021 62.5046 34.0019 62.5062C34.0018 62.5069 34.0017 62.5081 34.0016 62.5085C34.0015 62.5096 34.0014 62.5107 35.4915 62.683ZM40.7853 63.9227C40.0288 63.7366 38.9693 63.1782 37.9975 62.5724C37.5348 62.284 37.1297 62.0091 36.8405 61.8064C36.6963 61.7053 36.582 61.6229 36.505 61.5667C36.4665 61.5386 36.4373 61.5171 36.4185 61.5032C36.4091 61.4962 36.4023 61.4911 36.3982 61.488C36.3961 61.4865 36.3947 61.4854 36.394 61.4849C36.3937 61.4847 36.3935 61.4845 36.3935 61.4845C36.3935 61.4845 36.3935 61.4846 36.3936 61.4846C36.3937 61.4846 36.3938 61.4847 36.3938 61.4847C36.3939 61.4848 36.394 61.4849 35.4915 62.683C34.5889 63.8811 34.589 63.8812 34.5892 63.8813C34.5893 63.8814 34.5894 63.8815 34.5896 63.8816C34.5898 63.8818 34.5901 63.882 34.5905 63.8823C34.5912 63.8828 34.5921 63.8835 34.5931 63.8843C34.5953 63.8859 34.5981 63.888 34.6016 63.8906C34.6087 63.8959 34.6185 63.9032 34.631 63.9125C34.656 63.931 34.6916 63.9573 34.7369 63.9903C34.8275 64.0564 34.9572 64.1499 35.1184 64.2629C35.44 64.4883 35.8912 64.7946 36.4107 65.1184C37.4032 65.737 38.8115 66.5267 40.069 66.8359L40.7853 63.9227ZM39.1325 55.8908L35.9916 61.2583L38.5809 62.7734L41.7218 57.406L39.1325 55.8908ZM36.1899 63.0396L39.3308 66.4031L41.5235 64.3555L38.3826 60.9921L36.1899 63.0396ZM33.715 73.825L34.0048 74.0345L35.7623 71.6032L35.4725 71.3937L33.715 73.825ZM34.0048 74.0345C37.3 76.4165 41.778 76.3139 44.9606 73.7835L43.0936 71.4353C40.9639 73.1285 37.9674 73.1972 35.7623 71.6032L34.0048 74.0345ZM35.8278 86.1788L35.9681 85.9758L33.4999 84.2705L33.3597 84.4735L35.8278 86.1788ZM35.9681 85.9758C37.6253 83.5772 41.1954 83.6553 42.7463 86.1241L45.2866 84.5283C42.5899 80.2352 36.3817 80.0995 33.4999 84.2706L35.9681 85.9758Z" fill="black"/>
</svg>
