<svg width="35" height="42" viewBox="0 0 35 42" fill="none" xmlns="http://www.w3.org/2000/svg">
<path d="M21.1987 21.784C21.1987 21.172 21.7285 21.2299 22.3821 21.2299C23.0357 21.2299 23.5655 21.172 23.5655 21.784V24.0005H22.6779L23.5655 25.1087V25.2934C23.5655 25.9054 23.0357 26.4016 22.3821 26.4016C21.7285 26.4016 21.1987 25.9054 21.1987 25.2934V21.784Z" fill="#01B2CA"/>
<path d="M10.3961 21.784C10.3961 21.172 10.9259 21.2299 11.5795 21.2299C12.2331 21.2299 12.7629 21.172 12.7629 21.784V24.0005H11.8754L12.7629 25.1087V25.2934C12.7629 25.9054 12.2331 26.4016 11.5795 26.4016C10.9259 26.4016 10.3961 25.9054 10.3961 25.2934V21.784Z" fill="#01B2CA"/>
<path d="M7.90673 19.8928C7.87625 19.7996 7.86922 19.7002 7.88628 19.6036L7.97984 19.0736C8.03226 18.7766 8.13742 18.4914 8.29035 18.2315C8.57026 17.7558 8.99826 17.3849 9.50891 17.1754L10.1272 16.9218C10.4702 16.7811 10.8292 16.6832 11.1961 16.6304L12.5411 16.4366C13.8207 16.2524 15.1331 16.6393 16.1182 17.4764C16.1325 17.4885 16.135 17.51 16.1236 17.5249C15.5934 18.218 14.7707 18.6245 13.8981 18.6245H13.2564C12.799 18.6245 12.3448 18.7011 11.9126 18.851L9.48468 19.693C9.37482 19.7312 9.27369 19.7908 9.18725 19.8686L8.8733 20.1511C8.55249 20.4397 8.04082 20.303 7.90673 19.8928Z" fill="#01B2CA"/>
<path d="M25.6576 17.8682C25.6993 17.7732 25.7149 17.669 25.7029 17.5664L25.6493 17.1098C25.6157 16.8237 25.5279 16.547 25.3905 16.2945L25.3839 16.2824C25.143 15.8397 24.7647 15.4878 24.3053 15.2793L23.6286 14.972C23.3096 14.8271 22.9746 14.7195 22.6303 14.6511L21.204 14.3679C19.977 14.1243 18.699 14.3851 17.6583 15.0916L17.6382 15.1053C17.6217 15.1165 17.6176 15.139 17.6292 15.1551C18.1124 15.8263 18.8716 16.2453 19.7006 16.2985L20.4271 16.3451C20.8748 16.3738 21.3147 16.4716 21.7312 16.635L24.1048 17.5663C24.2117 17.6083 24.3095 17.6704 24.3927 17.7494L24.722 18.062C25.0137 18.339 25.4949 18.2393 25.6576 17.8682Z" fill="#01B2CA"/>
<path d="M17.1679 25.0213H17.8911L16.5104 27.3806L17.8911 28.859C17.0058 28.6413 15.7215 27.6738 15.7215 27.6738C15.7215 27.6738 15.8064 26.9396 17.1679 25.0213Z" fill="#01B2CA"/>
<path d="M2.96032 13.1047L3.9325 13.3389L4.06153 12.8034L3.67784 12.4082L2.96032 13.1047ZM5.71906 23.5339L5.00899 24.238L6.55237 22.9811L5.71906 23.5339ZM28.4864 23.5339L27.686 22.9344L29.1964 24.2381L28.4864 23.5339ZM30.3754 11.9969L29.6918 11.2669L29.0627 11.8561L29.5526 12.5653L30.3754 11.9969ZM23.8667 4.42363L23.3599 5.28565L23.7665 5.52475L24.2096 5.36301L23.8667 4.42363ZM7.88731 4.42357L8.3471 3.53554L8.2984 3.51032L8.24722 3.49058L7.88731 4.42357ZM7.026 12.4586L7.8404 11.8783L6.34421 9.77852L6.0333 12.338L7.026 12.4586ZM27.8338 15.2705L28.8297 15.1802L28.8252 15.1297L28.8155 15.0799L27.8338 15.2705ZM28.8257 26.2121L29.8257 26.2121L29.8257 26.1668L29.8217 26.1218L28.8257 26.2121ZM5.35533 26.2121L4.36262 26.0915L4.35533 26.1516V26.2121L5.35533 26.2121ZM13.0191 12.4586L13.3432 13.4046L13.3847 13.3904L13.4248 13.3726L13.0191 12.4586ZM12.3408 1.9282L11.674 1.18287L11.674 1.18287L12.3408 1.9282ZM2.41881 25.831C1.86652 25.831 1.41881 26.2788 1.41881 26.831C1.41881 27.3833 1.86652 27.831 2.41881 27.831V25.831ZM2.97498 26.9457L3.3909 26.0363L3.3909 26.0363L2.97498 26.9457ZM3.90142 27.7088L4.76833 27.2103L4.76833 27.2103L3.90142 27.7088ZM3.52574 29.5133C3.62251 30.057 4.14174 30.4194 4.68548 30.3226C5.22922 30.2258 5.59157 29.7066 5.4948 29.1629L3.52574 29.5133ZM31.6773 27.8653C32.2296 27.8653 32.6773 27.4176 32.6773 26.8653C32.6773 26.313 32.2296 25.8653 31.6773 25.8653V27.8653ZM31.1214 26.9799L31.5373 27.8893L31.5373 27.8893L31.1214 26.9799ZM30.1953 27.7429L31.0622 28.2413L31.0622 28.2413L30.1953 27.7429ZM28.6022 29.1966C28.5054 29.7403 28.8678 30.2595 29.4115 30.3563C29.9552 30.453 30.4745 30.0907 30.5712 29.5469L28.6022 29.1966ZM22.6779 24.0005V23.0005H20.5959L21.8974 24.6256L22.6779 24.0005ZM23.5655 24.0005V25.0005H24.5655V24.0005H23.5655ZM23.5655 25.1087H24.5655V24.7576L24.346 24.4836L23.5655 25.1087ZM11.8754 24.0005V23.0005H9.79332L11.0948 24.6256L11.8754 24.0005ZM12.7629 24.0005V25.0005H13.7629V24.0005H12.7629ZM12.7629 25.1087H13.7629V24.7576L13.5434 24.4836L12.7629 25.1087ZM11.9126 18.851L12.2403 19.7957L12.2403 19.7957L11.9126 18.851ZM9.18725 19.8686L9.85611 20.612L9.85611 20.612L9.18725 19.8686ZM9.48468 19.693L9.157 18.7483L9.157 18.7483L9.48468 19.693ZM16.1182 17.4764L16.7657 16.7143L16.1182 17.4764ZM16.1236 17.5249L15.3293 16.9174L15.3293 16.9174L16.1236 17.5249ZM10.1272 16.9218L9.74765 15.9966L9.74765 15.9966L10.1272 16.9218ZM11.1961 16.6304L11.3387 17.6201L11.3387 17.6201L11.1961 16.6304ZM8.29035 18.2315L7.42848 17.7244L8.29035 18.2315ZM9.50891 17.1754L9.88844 18.1006L9.88844 18.1006L9.50891 17.1754ZM7.97984 19.0736L6.99507 18.8997L6.99507 18.8997L7.97984 19.0736ZM7.90673 19.8928L6.95623 20.2035L7.90673 19.8928ZM8.8733 20.1511L8.20445 19.4077L8.20445 19.4077L8.8733 20.1511ZM12.5411 16.4366L12.3986 15.4469L12.3986 15.4469L12.5411 16.4366ZM7.88628 19.6036L8.87105 19.7774L8.87105 19.7774L7.88628 19.6036ZM20.4271 16.3451L20.3631 17.343L20.3631 17.343L20.4271 16.3451ZM21.7312 16.635L22.0965 15.7041L22.0965 15.7041L21.7312 16.635ZM24.3927 17.7494L23.7042 18.4746L23.7042 18.4746L24.3927 17.7494ZM24.1048 17.5663L23.7395 18.4972L23.7395 18.4972L24.1048 17.5663ZM17.6382 15.1053L17.0766 14.2779L17.0766 14.2779L17.6382 15.1053ZM17.6292 15.1551L18.4407 14.5708L17.6292 15.1551ZM23.6286 14.972L23.2152 15.8825L23.2152 15.8825L23.6286 14.972ZM22.6303 14.6511L22.4356 15.632L22.4356 15.632L22.6303 14.6511ZM25.3839 16.2824L26.2623 15.8045L26.2623 15.8044L25.3839 16.2824ZM24.3053 15.2793L24.7187 14.3687L24.7187 14.3687L24.3053 15.2793ZM25.6493 17.1098L26.6425 16.9933L26.6425 16.9933L25.6493 17.1098ZM25.3905 16.2945L24.5121 16.7724L24.5121 16.7724L25.3905 16.2945ZM25.6576 17.8682L26.5735 18.2698L25.6576 17.8682ZM24.722 18.062L25.4105 17.3368L25.4105 17.3368L24.722 18.062ZM19.7006 16.2985L19.7646 15.3005L19.7646 15.3005L19.7006 16.2985ZM21.204 14.3679L21.3987 13.3871L21.3987 13.3871L21.204 14.3679ZM17.6583 15.0916L18.22 15.919L18.22 15.919L17.6583 15.0916ZM25.7029 17.5664L24.7097 17.6829L24.7097 17.6829L25.7029 17.5664ZM17.1679 25.0213V24.0213H16.6513L16.3524 24.4425L17.1679 25.0213ZM17.8911 25.0213L18.7541 25.5264L19.6349 24.0213H17.8911V25.0213ZM15.7215 27.6738L14.7281 27.559L14.6623 28.1279L15.1198 28.4726L15.7215 27.6738ZM17.8911 28.859L17.6523 29.8301L20.9155 30.6326L18.6219 28.1765L17.8911 28.859ZM16.5104 27.3806L15.6474 26.8755L15.2711 27.5186L15.7796 28.0631L16.5104 27.3806ZM15.4543 32.1292L16.0402 31.3187L16.0401 31.3187L15.4543 32.1292ZM15.3886 37.5377L16.2113 38.1061L16.2113 38.1061L15.3886 37.5377ZM1.98814 12.8705C1.36677 15.4495 1.44605 17.3583 2.06027 19.1258C2.65054 20.8245 3.72831 22.342 4.88575 24.0867L6.55237 22.9811C5.32407 21.1295 4.43558 19.8683 3.94946 18.4694C3.4873 17.1394 3.38008 15.6317 3.9325 13.3389L1.98814 12.8705ZM29.2868 24.1333C30.5962 22.3849 31.6785 20.1531 32.1472 17.9141C32.6131 15.6881 32.4979 13.3096 31.1981 11.4284L29.5526 12.5653C30.4224 13.824 30.5946 15.5693 30.1896 17.5044C29.7873 19.4264 28.8403 21.3931 27.686 22.9344L29.2868 24.1333ZM31.0589 12.7268C33.3821 10.5511 33.1209 7.52452 31.4908 5.4753C29.8589 3.42379 26.8437 2.27249 23.5239 3.48425L24.2096 5.36301C26.7081 4.45104 28.8209 5.33168 29.9256 6.72036C31.0321 8.11134 31.116 9.93322 29.6918 11.2669L31.0589 12.7268ZM8.24722 3.49058C5.96942 2.61188 4.11728 2.47094 2.69729 3.04347C1.22593 3.63671 0.459614 4.89337 0.16559 6.23699C-0.123767 7.55928 0.016719 9.04326 0.392736 10.3616C0.767405 11.6751 1.41015 12.9435 2.2428 13.8012L3.67784 12.4082C3.14111 11.8553 2.63027 10.9147 2.31603 9.81299C2.00314 8.716 1.91939 7.57833 2.11936 6.66453C2.31466 5.77205 2.75122 5.17817 3.44518 4.89837C4.1905 4.59786 5.46612 4.56138 7.52739 5.35655L8.24722 3.49058ZM27.8257 26.2121C27.8257 35.5804 22.3025 39.9794 17.0866 39.9999C14.4383 40.0103 11.7775 38.9106 9.76816 36.6625C7.7601 34.4159 6.35533 30.9649 6.35533 26.2121L4.35533 26.2121C4.35533 31.364 5.88435 35.3185 8.277 37.9953C10.6683 40.6708 13.8751 42.0126 17.0945 41.9999C23.6138 41.9743 29.8257 36.4685 29.8257 26.2121L27.8257 26.2121ZM26.8379 15.3608L27.8298 26.3024L29.8217 26.1218L28.8297 15.1802L26.8379 15.3608ZM6.2116 13.0389C6.54272 13.5036 6.90979 13.9333 7.38188 14.2271C7.88824 14.5421 8.43009 14.6498 9.01468 14.6209C9.56336 14.5938 10.169 14.445 10.8396 14.2414C11.5172 14.0356 12.3448 13.7467 13.3432 13.4046L12.695 11.5126C11.6717 11.8631 10.8924 12.1352 10.2585 12.3277C9.61751 12.5223 9.20708 12.609 8.91588 12.6234C8.66059 12.636 8.53877 12.5913 8.43844 12.5289C8.30384 12.4452 8.12122 12.2724 7.8404 11.8783L6.2116 13.0389ZM13.4248 13.3726C15.6081 12.4033 17.498 11.668 19.1242 11.2117C20.7586 10.7532 22.0593 10.5965 23.0868 10.7244C24.0788 10.848 24.8245 11.236 25.4123 11.9286C26.0245 12.6501 26.5244 13.7729 26.8522 15.4611L28.8155 15.0799C28.4529 13.2126 27.8564 11.7176 26.9372 10.6345C25.9934 9.52239 24.7726 8.91893 23.334 8.73976C21.9309 8.56501 20.3372 8.79425 18.584 9.28607C16.8228 9.78015 14.8323 10.5594 12.6133 11.5446L13.4248 13.3726ZM6.42913 22.8297C5.69934 22.0938 4.922 21.615 4.10726 21.4747C3.26105 21.329 2.49876 21.5706 1.89044 22.0388C0.748502 22.9177 0.159507 24.5607 0.0290936 26.1048C-0.10383 27.6787 0.207778 29.4786 1.24378 30.7899C2.34525 32.184 4.12351 32.847 6.46556 32.312L6.02017 30.3622C4.31899 30.7508 3.36917 30.2538 2.81307 29.55C2.1915 28.7633 1.91607 27.5274 2.022 26.2731C2.13044 24.9891 2.6062 24.0117 3.11031 23.6237C3.32502 23.4585 3.53107 23.4049 3.76794 23.4457C4.03629 23.4919 4.45678 23.6811 5.00899 24.238L6.42913 22.8297ZM29.1964 24.2381C29.7463 23.6837 30.17 23.4932 30.4465 23.4462C30.6947 23.404 30.9161 23.4602 31.146 23.6322C31.6763 24.0289 32.1758 25.0141 32.3127 26.2953C32.4468 27.5511 32.1957 28.782 31.5977 29.561C31.0674 30.2519 30.1418 30.7513 28.4382 30.3622L27.9929 32.312C30.333 32.8465 32.1042 32.1859 33.1842 30.7788C34.1965 29.46 34.4693 27.6551 34.3013 26.0829C34.1361 24.536 33.5074 22.9009 32.344 22.0307C31.7271 21.5692 30.9603 21.3302 30.1114 21.4745C29.2908 21.6139 28.5087 22.0913 27.7764 22.8297L29.1964 24.2381ZM6.34803 26.3327L8.0187 12.5792L6.0333 12.338L4.36262 26.0915L6.34803 26.3327ZM24.3736 3.5616C20.6953 1.3988 18.0518 0.365551 16.0736 0.0829379C14.0269 -0.209463 12.66 0.300962 11.674 1.18287L13.0075 2.67352C13.5076 2.22612 14.2652 1.84488 15.7908 2.06283C17.3849 2.29057 19.7613 3.1697 23.3599 5.28565L24.3736 3.5616ZM11.674 1.18287C11.1752 1.62914 10.8098 2.13943 10.5221 2.5634C10.2082 3.02598 10.0184 3.33055 9.79837 3.56991C9.60791 3.77709 9.48705 3.82743 9.3792 3.84158C9.24247 3.85952 8.93734 3.84115 8.3471 3.53554L7.42751 5.31159C8.20336 5.7133 8.93659 5.91678 9.63934 5.82459C10.371 5.72861 10.8907 5.33686 11.2707 4.92347C11.6212 4.54226 11.9318 4.0478 12.1771 3.68638C12.4485 3.28635 12.701 2.94767 13.0075 2.67352L11.674 1.18287ZM2.41881 27.831C2.48539 27.831 2.54009 27.8464 2.55906 27.8551L3.3909 26.0363C3.07277 25.8908 2.72739 25.831 2.41881 25.831V27.831ZM2.55906 27.8551C2.64633 27.895 2.76522 27.9658 2.87385 28.0519C2.92631 28.0935 2.96807 28.1322 2.99829 28.1645C3.02997 28.1983 3.03816 28.2136 3.0345 28.2073L4.76833 27.2103C4.59202 26.9037 4.33557 26.6586 4.11667 26.4849C3.88843 26.3039 3.63242 26.1467 3.3909 26.0363L2.55906 27.8551ZM3.0345 28.2073C3.26678 28.6112 3.45083 29.0924 3.52574 29.5133L5.4948 29.1629C5.37377 28.4828 5.09858 27.7847 4.76833 27.2103L3.0345 28.2073ZM31.6773 25.8653C31.3688 25.8653 31.0235 25.925 30.7054 26.0705L31.5373 27.8893C31.5562 27.8806 31.6108 27.8653 31.6773 27.8653V25.8653ZM30.7054 26.0705C30.4639 26.181 30.208 26.3382 29.9798 26.5191C29.761 26.6927 29.5046 26.9379 29.3283 27.2445L31.0622 28.2413C31.0586 28.2476 31.0668 28.2323 31.0984 28.1985C31.1286 28.1663 31.1703 28.1276 31.2228 28.086C31.3313 27.9999 31.4501 27.9292 31.5373 27.8893L30.7054 26.0705ZM29.3283 27.2445C28.9982 27.8187 28.7231 28.5167 28.6022 29.1966L30.5712 29.5469C30.6461 29.1261 30.8301 28.6451 31.0622 28.2413L29.3283 27.2445ZM22.1987 25.2934V21.784H20.1987V25.2934H22.1987ZM22.5655 21.784V24.0005H24.5655V21.784H22.5655ZM23.5655 23.0005H22.6779V25.0005H23.5655V23.0005ZM21.8974 24.6256L22.7849 25.7338L24.346 24.4836L23.4585 23.3753L21.8974 24.6256ZM22.5655 25.1087V25.2934H24.5655V25.1087H22.5655ZM22.3821 25.4016C22.3104 25.4016 22.2586 25.3749 22.2289 25.3471C22.2003 25.3203 22.1987 25.3012 22.1987 25.2934H20.1987C20.1987 26.5185 21.2391 27.4016 22.3821 27.4016V25.4016ZM22.3821 27.4016C23.5251 27.4016 24.5655 26.5185 24.5655 25.2934H22.5655C22.5655 25.3012 22.5639 25.3203 22.5353 25.3471C22.5056 25.3749 22.4538 25.4016 22.3821 25.4016V27.4016ZM22.3821 22.2299C22.4662 22.2299 22.5578 22.229 22.6256 22.2286C22.6999 22.2282 22.7604 22.2284 22.8136 22.23C22.9314 22.2334 22.9574 22.2428 22.9407 22.238C22.9102 22.2292 22.7789 22.1825 22.6696 22.0354C22.5631 21.892 22.5655 21.771 22.5655 21.784H24.5655C24.5655 21.491 24.5016 21.1477 24.2753 20.843C24.0463 20.5346 23.7417 20.3878 23.497 20.3169C23.2662 20.2501 23.0372 20.2357 22.8719 20.2309C22.712 20.2262 22.5114 20.2299 22.3821 20.2299V22.2299ZM22.3821 20.2299C22.2528 20.2299 22.0522 20.2262 21.8923 20.2309C21.727 20.2357 21.498 20.2501 21.2672 20.3169C21.0225 20.3878 20.7179 20.5346 20.4889 20.843C20.2626 21.1477 20.1987 21.491 20.1987 21.784H22.1987C22.1987 21.771 22.201 21.892 22.0945 22.0354C21.9853 22.1825 21.854 22.2292 21.8235 22.238C21.8068 22.2428 21.8328 22.2334 21.9506 22.23C22.0038 22.2284 22.0643 22.2282 22.1385 22.2286C22.2063 22.229 22.2979 22.2299 22.3821 22.2299V20.2299ZM11.3961 25.2934V21.784H9.39612V25.2934H11.3961ZM11.7629 21.784V24.0005H13.7629V21.784H11.7629ZM12.7629 23.0005H11.8754V25.0005H12.7629V23.0005ZM11.0948 24.6256L11.9824 25.7338L13.5434 24.4836L12.6559 23.3753L11.0948 24.6256ZM11.7629 25.1087V25.2934H13.7629V25.1087H11.7629ZM11.5795 25.4016C11.5078 25.4016 11.456 25.3749 11.4263 25.3471C11.3977 25.3203 11.3961 25.3012 11.3961 25.2934H9.39612C9.39612 26.5185 10.4365 27.4016 11.5795 27.4016V25.4016ZM11.5795 27.4016C12.7225 27.4016 13.7629 26.5185 13.7629 25.2934H11.7629C11.7629 25.3012 11.7613 25.3203 11.7327 25.3471C11.703 25.3749 11.6512 25.4016 11.5795 25.4016V27.4016ZM11.5795 22.2299C11.6637 22.2299 11.7553 22.2289 11.823 22.2286C11.8973 22.2282 11.9578 22.2284 12.011 22.23C12.1288 22.2334 12.1548 22.2428 12.1381 22.238C12.1076 22.2291 11.9763 22.1825 11.8671 22.0354C11.7606 21.892 11.7629 21.771 11.7629 21.784H13.7629C13.7629 21.491 13.699 21.1477 13.4727 20.843C13.2437 20.5346 12.9391 20.3878 12.6945 20.3169C12.4637 20.2501 12.2346 20.2357 12.0693 20.2308C11.9094 20.2262 11.7088 20.2299 11.5795 20.2299V22.2299ZM11.5795 20.2299C11.4502 20.2299 11.2496 20.2262 11.0897 20.2308C10.9244 20.2357 10.6953 20.2501 10.4645 20.3169C10.2199 20.3878 9.91529 20.5346 9.68628 20.843C9.46002 21.1477 9.39612 21.491 9.39612 21.784H11.3961C11.3961 21.771 11.3985 21.892 11.292 22.0354C11.1827 22.1825 11.0514 22.2291 11.0209 22.238C11.0043 22.2428 11.0302 22.2334 11.148 22.23C11.2012 22.2284 11.2617 22.2282 11.336 22.2286C11.4038 22.2289 11.4954 22.2299 11.5795 22.2299V20.2299ZM8.87105 19.7774L8.96461 19.2474L6.99507 18.8997L6.9015 19.4298L8.87105 19.7774ZM9.88844 18.1006L10.5067 17.847L9.74765 15.9966L9.12939 16.2502L9.88844 18.1006ZM11.3387 17.6201L12.6837 17.4264L12.3986 15.4469L11.0536 15.6406L11.3387 17.6201ZM8.5184 19.1252L8.20445 19.4077L9.54216 20.8945L9.85611 20.612L8.5184 19.1252ZM13.8981 17.6245H13.2564V19.6245H13.8981V17.6245ZM11.5849 17.9062L9.157 18.7483L9.81237 20.6378L12.2403 19.7957L11.5849 17.9062ZM13.2564 17.6245C12.6874 17.6245 12.1225 17.7197 11.5849 17.9062L12.2403 19.7957C12.5671 19.6824 12.9105 19.6245 13.2564 19.6245V17.6245ZM9.85611 20.612C9.8434 20.6235 9.82853 20.6322 9.81237 20.6378L9.157 18.7483C8.92112 18.8301 8.70399 18.9582 8.5184 19.1252L9.85611 20.612ZM15.4706 18.2384C15.0884 17.9136 15.0101 17.3347 15.3293 16.9174L16.9179 18.1325C17.2599 17.6854 17.1766 17.0635 16.7657 16.7143L15.4706 18.2384ZM10.5067 17.847C10.7737 17.7375 11.0531 17.6613 11.3387 17.6201L11.0536 15.6406C10.6053 15.7051 10.1667 15.8247 9.74765 15.9966L10.5067 17.847ZM9.15222 18.7387C9.32133 18.4513 9.57992 18.2272 9.88844 18.1006L9.12939 16.2502C8.4166 16.5426 7.81919 17.0604 7.42848 17.7244L9.15222 18.7387ZM8.96461 19.2474C8.99629 19.068 9.05982 18.8957 9.15222 18.7387L7.42848 17.7244C7.21502 18.0872 7.06824 18.4852 6.99507 18.8997L8.96461 19.2474ZM6.95623 20.2035C7.31497 21.301 8.68386 21.6667 9.54216 20.8945L8.20445 19.4077C8.42111 19.2128 8.76668 19.3051 8.85724 19.5821L6.95623 20.2035ZM15.3293 16.9174C14.9884 17.3631 14.4592 17.6245 13.8981 17.6245V19.6245C15.0821 19.6245 16.1985 19.0729 16.9179 18.1325L15.3293 16.9174ZM12.6837 17.4264C13.6747 17.2837 14.7004 17.5839 15.4706 18.2384L16.7657 16.7143C15.5657 15.6946 13.9666 15.221 12.3986 15.4469L12.6837 17.4264ZM8.85724 19.5821C8.87783 19.6451 8.88257 19.7122 8.87105 19.7774L6.9015 19.4298C6.85587 19.6883 6.87467 19.954 6.95623 20.2035L8.85724 19.5821ZM26.696 17.4499L26.6425 16.9933L24.6561 17.2264L24.7097 17.6829L26.696 17.4499ZM26.2689 15.8166L26.2623 15.8045L24.5055 16.7603L24.5121 16.7724L26.2689 15.8166ZM24.7187 14.3687L24.0421 14.0615L23.2152 15.8825L23.8919 16.1898L24.7187 14.3687ZM22.8251 13.6703L21.3987 13.3871L21.0092 15.3488L22.4356 15.632L22.8251 13.6703ZM17.0967 14.2642L17.0766 14.2779L18.1998 15.9327L18.22 15.919L17.0967 14.2642ZM23.7042 18.4746L24.0335 18.7873L25.4105 17.3368L25.0812 17.0241L23.7042 18.4746ZM19.6366 17.2964L20.3631 17.343L20.4911 15.3471L19.7646 15.3005L19.6366 17.2964ZM21.366 17.5659L23.7395 18.4972L24.47 16.6354L22.0965 15.7041L21.366 17.5659ZM20.3631 17.343C20.7078 17.3651 21.0461 17.4404 21.366 17.5659L22.0965 15.7041C21.5834 15.5028 21.0418 15.3824 20.4911 15.3471L20.3631 17.343ZM25.0812 17.0241C24.9043 16.8563 24.6968 16.7243 24.47 16.6354L23.7395 18.4972C23.7267 18.4922 23.7146 18.4846 23.7042 18.4746L25.0812 17.0241ZM17.0766 14.2779C16.6013 14.6006 16.4721 15.2594 16.8176 15.7393L18.4407 14.5708C18.7632 15.0187 18.6421 15.6324 18.1999 15.9327L17.0766 14.2779ZM24.0421 14.0615C23.6529 13.8848 23.2446 13.7536 22.8251 13.6703L22.4356 15.632C22.7047 15.6854 22.9662 15.7695 23.2152 15.8825L24.0421 14.0615ZM26.2623 15.8044C25.9174 15.1706 25.3758 14.667 24.7187 14.3687L23.8919 16.1898C24.1537 16.3087 24.3687 16.5088 24.5055 16.7603L26.2623 15.8044ZM26.6425 16.9933C26.5941 16.5807 26.4674 16.1813 26.2689 15.8165L24.5121 16.7724C24.5884 16.9126 24.6374 17.0666 24.6561 17.2264L26.6425 16.9933ZM24.7418 17.4667C24.8525 17.2142 25.1911 17.1285 25.4105 17.3368L24.0335 18.7873C24.8364 19.5495 26.1374 19.2645 26.5735 18.2698L24.7418 17.4667ZM16.8176 15.7393C17.4766 16.6546 18.5106 17.2242 19.6366 17.2964L19.7646 15.3005C19.2325 15.2664 18.7483 14.998 18.4407 14.5708L16.8176 15.7393ZM21.3987 13.3871C19.9076 13.091 18.3574 13.4084 17.0967 14.2643L18.22 15.919C19.0406 15.3619 20.0464 15.1576 21.0092 15.3488L21.3987 13.3871ZM26.5735 18.2698C26.6861 18.0128 26.7289 17.7298 26.696 17.4499L24.7097 17.6829C24.7009 17.6082 24.7124 17.5336 24.7418 17.4667L26.5735 18.2698ZM17.1679 26.0213H17.8911V24.0213H17.1679V26.0213ZM15.7215 27.6738C16.7149 27.7887 16.7148 27.7894 16.7147 27.7902C16.7147 27.7904 16.7146 27.7912 16.7146 27.7916C16.7144 27.7926 16.7143 27.7936 16.7142 27.7945C16.714 27.7964 16.7138 27.7982 16.7135 27.8C16.7131 27.8035 16.7126 27.8069 16.7122 27.81C16.7113 27.8162 16.7105 27.8217 16.7097 27.8262C16.7083 27.8353 16.7071 27.841 16.7067 27.8432C16.7058 27.8475 16.7076 27.8377 16.715 27.8128C16.7297 27.7629 16.7661 27.6541 16.8453 27.4789C17.0044 27.1271 17.3305 26.5199 17.9834 25.6001L16.3524 24.4425C15.6438 25.441 15.2467 26.1601 15.023 26.655C14.9108 26.9031 14.8408 27.0977 14.7971 27.2455C14.7753 27.3194 14.7598 27.382 14.749 27.4339C14.7436 27.4599 14.7393 27.4832 14.7359 27.504C14.7342 27.5144 14.7327 27.5242 14.7314 27.5334C14.7308 27.5379 14.7302 27.5424 14.7296 27.5466C14.7294 27.5488 14.7291 27.5509 14.7289 27.5529C14.7287 27.554 14.7286 27.555 14.7285 27.556C14.7284 27.5565 14.7283 27.5572 14.7283 27.5575C14.7282 27.5582 14.7281 27.559 15.7215 27.6738ZM18.1299 27.888C17.8542 27.8202 17.4281 27.6009 17.0033 27.3361C16.8063 27.2134 16.6335 27.0961 16.5101 27.0096C16.4486 26.9665 16.4001 26.9316 16.3678 26.908C16.3516 26.8962 16.3396 26.8873 16.332 26.8817C16.3282 26.8789 16.3256 26.8769 16.3241 26.8758C16.3233 26.8752 16.3229 26.8749 16.3227 26.8748C16.3227 26.8747 16.3227 26.8747 16.3228 26.8748C16.3228 26.8748 16.3228 26.8748 16.3229 26.8749C16.323 26.8749 16.323 26.875 16.3231 26.875C16.3231 26.8751 16.3232 26.8751 15.7215 27.6738C15.1198 28.4726 15.1199 28.4726 15.12 28.4727C15.12 28.4727 15.1201 28.4728 15.1202 28.4729C15.1204 28.473 15.1206 28.4731 15.1208 28.4733C15.1211 28.4736 15.1216 28.4739 15.1222 28.4743C15.1233 28.4752 15.1247 28.4762 15.1264 28.4775C15.1298 28.4801 15.1345 28.4835 15.1403 28.4879C15.152 28.4965 15.1684 28.5086 15.1891 28.5237C15.2304 28.5539 15.2892 28.5962 15.362 28.6472C15.507 28.7489 15.7106 28.8871 15.9454 29.0335C16.384 29.3068 17.0427 29.6802 17.6523 29.8301L18.1299 27.888ZM17.028 24.5162L15.6474 26.8755L17.3735 27.8857L18.7541 25.5264L17.028 24.5162ZM15.7796 28.0631L17.1602 29.5415L18.6219 28.1765L17.2413 26.6981L15.7796 28.0631ZM14.7411 32.8475L14.8685 32.9396L16.0401 31.3187L15.9128 31.2267L14.7411 32.8475ZM14.8685 32.9396C16.4407 34.0761 18.5773 34.0272 20.0958 32.8198L18.8511 31.2543C18.0345 31.9036 16.8856 31.9299 16.0402 31.3187L14.8685 32.9396ZM16.1497 38.1953L16.2113 38.1061L14.5658 36.9692L14.5042 37.0585L16.1497 38.1953ZM16.2113 38.1061C16.8007 37.253 18.0704 37.2808 18.622 38.1588L20.3156 37.095C19.0001 35.0008 15.9716 34.9345 14.5658 36.9692L16.2113 38.1061Z" fill="#01B2CA"/>
</svg>
